<svg id="Capa_1" data-name="Capa 1" xmlns="http://www.w3.org/2000/svg" viewBox="0 0 256 256"><defs><style>.cls-1{fill:#1d1d1b;}</style></defs><path class="cls-1" d="M256,109c-.32,2.63-.58,5.26-.95,7.88-5.23,36.79-24.7,63.56-57.57,80.41-16.65,8.54-34.61,11.52-53.32,9.86a102.34,102.34,0,0,1-41.59-13c-4.85-2.73-5.57-2.57-9.5,1.36L43.23,245.34c-5.1,5.09-10.89,8.83-18.15,10.31C11.46,258.41-2.41,244.54.35,230.92c1.48-7.26,5.22-13,10.31-18.15L61,162.4c3.25-3.25,3.46-4.25,1.16-8.28a102.42,102.42,0,0,1-13-38.28,97.88,97.88,0,0,1,6-49.55c10.88-27,29.65-46.51,56.43-58.06A97.79,97.79,0,0,1,144.81.38,20.65,20.65,0,0,0,147,0h10.5a18.24,18.24,0,0,0,2.19.38,94,94,0,0,1,33.53,8.13Q246.3,32.78,255,90.62c.39,2.62.65,5.25,1,7.87Zm-27.09-4.83c-.12-41.66-32.59-76.61-76.26-77-42.12-.36-76.43,33-77.15,75.8-.7,42.12,33.29,76.83,76,77.51C193.64,181.16,228.23,147.07,228.91,104.16Z" transform="translate(0 0)"/><path class="cls-1" d="M156.74,41.16a79.54,79.54,0,0,1,25.84,5.54,10.73,10.73,0,0,1,6.36,13.88,10.55,10.55,0,0,1-13.72,6.17C168.66,64.36,162,62.59,155,63.09c-18,1.29-31.31,9.77-39.5,25.92-2.35,4.63-5.08,8.42-10.84,8.55-7.91.18-13.07-7.86-9.7-15.29C104.17,62,119.61,49,141.25,43.57,146.3,42.31,151.57,41.94,156.74,41.16Z" transform="translate(0 0)"/></svg>