<svg id="Capa_1" data-name="Capa 1" xmlns="http://www.w3.org/2000/svg" viewBox="0 0 239.31 256"><path d="M128.06,256c-24.34-1.61-48.56-2.39-72.55-5.16-11.73-1.35-23.37-5.54-34.42-10C9.12,236,7.06,231,9,218.36c3.45-22.81,16.75-38.86,35.74-50.68,16-9.94,33.64-14.6,52.39-14.79,20.55-.2,41.1-.47,61.64,0,29.76.74,55.53,10.84,74.78,34.54,7.87,9.69,12.08,20.95,13.87,33.33,1.2,8.27-1.71,13.92-8.6,18a90.53,90.53,0,0,1-37.91,12.08C176.66,253.27,152.32,254.38,128.06,256Z" transform="translate(-8.35 0)"/><path d="M127.84,0a70,70,0,0,1,70.35,70c-.09,40.42-30.62,68.53-65.15,70.31-46.61,2.4-75-32.47-75.4-69.65C57.21,31.61,88.66.2,127.84,0Z" transform="translate(-8.35 0)"/></svg>