<svg id="Capa_1" data-name="Capa 1" xmlns="http://www.w3.org/2000/svg" viewBox="0 0 95.73 26.51"><defs><style>.cls-1{isolation:isolate;}.cls-2,.cls-3{fill:#fff;}.cls-3{fill-rule:evenodd;}</style></defs><g class="cls-1"><path class="cls-2" d="M36.69-1.76V17.45H30.62v-13l-2.42,13h-4.3L21.34,4.78V17.45H15.26V-1.76h9c.27,1.15.55,2.51.83,4.08l1,4.89,1.59-9Z" transform="translate(-15.26 1.77)"/></g><g class="cls-1"><path class="cls-2" d="M42.84,4.64V17.45H38.21V4.64Z" transform="translate(-15.26 1.77)"/><path class="cls-2" d="M55.74,4.64l-2.66,5.78,2.91,7H51.21L49.33,12v5.49H44.7V4.64h4.63v5l2.06-5Z" transform="translate(-15.26 1.77)"/><path class="cls-2" d="M56.79,4.64h3.28a35.24,35.24,0,0,1,4.44.18,3.27,3.27,0,0,1,1.89.93,3.37,3.37,0,0,1,.73,2.39,2.87,2.87,0,0,1-.52,2,3.21,3.21,0,0,1-2,.61,4.18,4.18,0,0,1,1.84.66,1.78,1.78,0,0,1,.59.76,8.28,8.28,0,0,1,.12,1.89v3.38h-4.3V13.19a2.18,2.18,0,0,0-.23-1.27,1.79,1.79,0,0,0-1.18-.25v5.78H56.79Zm4.63,2.19V9.68a2.74,2.74,0,0,0,1.09-.15c.21-.11.32-.44.32-1V7.82a.87.87,0,0,0-.31-.8A2.32,2.32,0,0,0,61.42,6.83Z" transform="translate(-15.26 1.77)"/><path class="cls-2" d="M79.5,12.14a21,21,0,0,1-.12,2.73,2.67,2.67,0,0,1-.79,1.47,4.48,4.48,0,0,1-1.8,1,8.78,8.78,0,0,1-2.64.36,9.19,9.19,0,0,1-2.57-.34,4.26,4.26,0,0,1-1.83-1,2.66,2.66,0,0,1-.83-1.46,19.31,19.31,0,0,1-.13-2.77V10a18.93,18.93,0,0,1,.13-2.73,2.55,2.55,0,0,1,.79-1.47,4.35,4.35,0,0,1,1.8-1,8.69,8.69,0,0,1,2.64-.36,8.89,8.89,0,0,1,2.57.34,4.32,4.32,0,0,1,1.83,1,2.59,2.59,0,0,1,.82,1.46A19.31,19.31,0,0,1,79.5,10ZM74.87,7.93a3,3,0,0,0-.13-1.14.59.59,0,0,0-.57-.25.77.77,0,0,0-.56.2,2.23,2.23,0,0,0-.19,1.19v6a4.1,4.1,0,0,0,.13,1.38c.08.17.28.26.59.26a.59.59,0,0,0,.6-.3,4.57,4.57,0,0,0,.13-1.43Z" transform="translate(-15.26 1.77)"/></g><g class="cls-1"><path class="cls-2" d="M94.18,4.63h7.72V7.2H98.81V9.62h2.9v2.44h-2.9v2.82h3.4v2.56h-8Z" transform="translate(-15.26 1.77)"/><path class="cls-2" d="M108.17,4.63V14.88H111v2.56h-7.45V4.63Z" transform="translate(-15.26 1.77)"/></g><polygon class="cls-3" points="71.3 0.02 85.42 0.02 82.55 3.88 76.01 3.88 75.99 3.86 75.99 20.26 71.3 23.59 71.3 0.02"/><polygon class="cls-3" points="70.56 0 70.56 20.25 65.88 23.59 65.88 3.95 56.45 3.95 60 0 70.56 0"/><g class="cls-1"><path class="cls-2" d="M90.1,23.58A1.06,1.06,0,0,1,89,24.74c-1,0-1.15-.7-1.15-1.81s.39-1.8,1.19-1.8a1,1,0,0,1,1.06,1.12h-.79c0-.19,0-.49-.29-.49s-.34.32-.34,1.17,0,1.19.33,1.19.29-.33.3-.54Z" transform="translate(-15.26 1.77)"/><path class="cls-2" d="M91.24,21.19v2.44c0,.23.05.48.33.48s.32-.22.32-.48V21.19h.8v2.42a1,1,0,0,1-1.14,1.13c-.8,0-1.1-.42-1.1-1.14V21.19Z" transform="translate(-15.26 1.77)"/><path class="cls-2" d="M93.81,23.67c0,.28.1.48.34.48s.31-.16.31-.36-.12-.38-.53-.59c-.6-.31-.83-.58-.83-1.09a1,1,0,0,1,2.09.06h-.76c0-.24-.06-.45-.29-.45s-.25.11-.25.31.07.3.45.49c.64.32.91.6.91,1.19a1.11,1.11,0,0,1-2.22,0Z" transform="translate(-15.26 1.77)"/><path class="cls-2" d="M97.81,23.58a1.07,1.07,0,0,1-1.11,1.16c-1,0-1.15-.7-1.15-1.81s.39-1.8,1.19-1.8a1,1,0,0,1,1.07,1.12H97c0-.19,0-.49-.29-.49s-.34.32-.34,1.17,0,1.19.33,1.19.29-.33.3-.54Z" transform="translate(-15.26 1.77)"/><path class="cls-2" d="M100.45,22.91c0,1.28-.35,1.83-1.21,1.83s-1.16-.56-1.16-1.85.4-1.76,1.2-1.76S100.45,21.7,100.45,22.91Zm-1.53,0c0,.86.07,1.22.35,1.22s.35-.33.35-1.22-.07-1.13-.35-1.13S98.92,22.08,98.92,22.89Z" transform="translate(-15.26 1.77)"/><path class="cls-2" d="M103.44,23.51H102.3v.78h1.26l-.06.38h-1.64v-2.6h1.63v.39H102.3v.66h1.14Z" transform="translate(-15.26 1.77)"/><path class="cls-2" d="M103.89,24.67V24.1h.43v.57Z" transform="translate(-15.26 1.77)"/><path class="cls-2" d="M105.16,22.07v2.6h-.45v-2.6Z" transform="translate(-15.26 1.77)"/><path class="cls-2" d="M105.54,24.67V24.1H106v.57Z" transform="translate(-15.26 1.77)"/><path class="cls-2" d="M106.81,23.56v1.11h-.45v-2.6h1c.48,0,.81.24.81.7a.57.57,0,0,1-.4.6.59.59,0,0,1,.36.64v.06a4.86,4.86,0,0,0,0,.6h-.44a2,2,0,0,1,0-.6V24c0-.32-.11-.44-.48-.44Zm0-.37h.42c.28,0,.49-.07.49-.39s-.18-.36-.42-.36h-.49Z" transform="translate(-15.26 1.77)"/><path class="cls-2" d="M108.54,24.67V24.1H109v.57Z" transform="translate(-15.26 1.77)"/><path class="cls-2" d="M109.35,22.07h.46v2.22H111l0,.38h-1.59Z" transform="translate(-15.26 1.77)"/></g></svg>