<svg id="Capa_1" data-name="Capa 1" xmlns="http://www.w3.org/2000/svg" viewBox="0 0 256 256"><defs><style>.cls-1{fill:#fff;opacity:0.75;}</style></defs><rect class="cls-1" width="256" height="256" rx="59.74"/><path d="M239.76-52.48c19.83,0,39.66,0,59.49,0,8.44,0,14.95,6.08,15.24,14,.3,8.49-6.21,15.18-15,15.29-7.08.08-14.17,0-21.25,0h-98c-8.88,0-15.45-5.91-15.74-14.06a14.65,14.65,0,0,1,15-15.27c17.25-.07,34.5,0,51.74,0Z" transform="translate(-111.49 116)"/><path d="M239.25,76.48c-19.83,0-39.66,0-59.49,0-8.45,0-14.95-6.08-15.24-14-.3-8.5,6.21-15.21,15-15.29,9.08-.08,18.16,0,27.24,0q46.13,0,92.23,0c8.66,0,15.2,6,15.5,14,.31,8.47-6.24,15.24-15,15.28-15.24.07-30.49,0-45.74,0Z" transform="translate(-111.49 116)"/><path d="M239.76-2.62c19.74,0,39.49,0,59.23,0,8.08,0,13.75,4.55,15.26,12a14.61,14.61,0,0,1-13,17.13c-1.16.08-2.33.09-3.5.09q-58.23,0-116.47,0a23.2,23.2,0,0,1-7.11-.93,14.42,14.42,0,0,1-9.5-15.79c1.16-7.07,6.78-12.34,13.87-12.4,17.75-.16,35.5-.08,53.24-.1Z" transform="translate(-111.49 116)"/></svg>