<svg id="Capa_1" data-name="Capa 1" xmlns="http://www.w3.org/2000/svg" viewBox="0 0 512 503.49"><defs><style>.cls-1{opacity:0.29;}.cls-2,.cls-8{fill:#1f2a50;}.cls-3{fill:#ebf2e5;}.cls-4{fill:#c6c9d6;}.cls-5{fill:#a0a8c2;}.cls-6{fill:#203973;}.cls-7{fill:#3dbfef;}.cls-8{fill-rule:evenodd;}</style></defs><ellipse class="cls-1" cx="260.5" cy="484.99" rx="129.5" ry="18.5"/><path class="cls-2" d="M419.79,363.81a17.38,17.38,0,0,0-.27,3.46c0,2.69.53,5.35.6,8,.16,6-3.52,10.52-1.74,16.72.81,2.83,3.87,8.16,7.28,8.09s5.48-3.76,6.46-6.5a83.76,83.76,0,0,1,5-11.86,59.23,59.23,0,0,0,2.8-5.85,91.34,91.34,0,0,1-18.58-10.76C420.79,364.72,420.28,364.27,419.79,363.81Z" transform="translate(0 71.49)"/><path class="cls-2" d="M495.62,371.22c.83.88,1.63,1.79,2.47,2.66,2.4,2.47,5.48,5.08,8.85,4.39,2.79-.57,4.7-3.4,5-6.23s-.69-5.66-1.91-8.24a61.62,61.62,0,0,0-12.22-16.63c.14,1.37.28,2.75.38,4.12C498.68,357.9,498.18,365.26,495.62,371.22Z" transform="translate(0 71.49)"/><path class="cls-2" d="M499.2,390.18a56.75,56.75,0,0,0-5.41-15.53,17.37,17.37,0,0,1-6.45,6,27.57,27.57,0,0,1-8.95,2.79c2.05,4.51,4.24,8.95,6.63,13.29,1.66,3,3.94,6.36,7.37,6.58,2.85.18,5.44-2,6.48-4.7S499.7,393,499.2,390.18Z" transform="translate(0 71.49)"/><path class="cls-2" d="M457.22,381.86c.1.45.19.9.3,1.34q1.8,8.07,4.27,16c1,3.29,2.61,7,5.94,7.9,2.75.75,5.73-.92,7.27-3.32s1.93-5.36,2-8.21a52.5,52.5,0,0,0-1.16-11.8A60.46,60.46,0,0,1,457.22,381.86Z" transform="translate(0 71.49)"/><path class="cls-3" d="M410.31,221.27a64.19,64.19,0,0,1-.58,19.66c-1.17,6.22-2.65,12.5-2.45,18.87.34,11.17,6.53,23.57,11.05,33.64,1.19,2.65,2.43,5.29,3.74,7.93,9.52,19.18,22.3,37.57,40.31,49.37,4.54,3,9.57,5.55,15,5.81,5.73.27,11.32-2.12,15.92-5.54a38.85,38.85,0,0,0,4.47-4.65c-5.78-54-40.61-102.72-83.52-134.7-1.13-.84-2.42-1.78-3.79-2.72A32,32,0,0,1,410.31,221.27Z" transform="translate(0 71.49)"/><path class="cls-4" d="M493.79,374.65a22.94,22.94,0,0,0,1.83-3.43c2.56-6,3.06-13.32,2.58-19.93-.1-1.37-.24-2.75-.38-4.12,0-.27,0-.54-.07-.81a38.85,38.85,0,0,1-4.47,4.65c-4.6,3.42-10.19,5.81-15.92,5.54-5.41-.26-10.44-2.85-15-5.81-18-11.8-30.79-30.19-40.31-49.37-1.31-2.64-2.55-5.28-3.74-7.93-4.52-10.07-10.71-22.47-11.05-33.64-.2-6.37,1.28-12.65,2.45-18.87a64.19,64.19,0,0,0,.58-19.66c0,.18-.06.35-.1.53-.34,1.77-.78,3.51-1.28,5.2-.23.78-.48,1.56-.73,2.34a15.7,15.7,0,0,1,.06,3.49c-.45,4.86-2.66,9.36-4.3,14a62.31,62.31,0,0,0-3.27,23.28c.36,10.87,2.78,21.79,5,32.5,6.42,31.44,23.86,60.92,50.57,79.05l1,.24a60.46,60.46,0,0,0,18.61,1.88c.87-.07,1.72-.17,2.56-.29a27.57,27.57,0,0,0,8.95-2.79A17.37,17.37,0,0,0,493.79,374.65Z" transform="translate(0 71.49)"/><path class="cls-5" d="M405.66,302.57c-2.19-10.71-4.61-21.63-5-32.5A62.31,62.31,0,0,1,404,246.79c1.64-4.6,3.85-9.1,4.3-14a15.7,15.7,0,0,0-.06-3.49,96.82,96.82,0,0,1-21.89,36.73c-1.05,4.8-2.25,9.57-3.56,14.32q7.58,12.94,13.86,26.58l.44,1a305.06,305.06,0,0,1,12.24,31.35c2.91,8.87,3.68,18.08,10.5,24.53.49.46,1,.91,1.56,1.34a91.34,91.34,0,0,0,18.58,10.76,103.46,103.46,0,0,0,16.3,5.71C429.52,363.49,412.08,334,405.66,302.57Z" transform="translate(0 71.49)"/><path class="cls-6" d="M392,194.81a66.06,66.06,0,0,1,4.53,21.27,10.3,10.3,0,0,0,.88,4.62,4.9,4.9,0,0,0,3.5,2.09,19.45,19.45,0,0,0,8.33-.57,7.6,7.6,0,0,0,1-.42c0-.18.07-.35.1-.53a32,32,0,0,0,.13-12.33,18.26,18.26,0,0,0-3.38-7.45c-3.54-4.54-9.37-6.83-15.15-6.75,0,.06,0,.13,0,.2Z" transform="translate(0 71.49)"/><path class="cls-2" d="M400.9,222.79a4.9,4.9,0,0,1-3.5-2.09,10.3,10.3,0,0,1-.88-4.62A66.06,66.06,0,0,0,392,194.81l-.07.13c.11,1.86.22,3.71.28,5.57q.41,11-.13,22c-.3,6.15-.79,12.29-1.52,18.4q-1.51,12.65-4.24,25.13a96.82,96.82,0,0,0,21.89-36.73c.25-.78.5-1.56.73-2.34.5-1.69.94-3.43,1.28-5.2a7.6,7.6,0,0,1-1,.42A19.45,19.45,0,0,1,400.9,222.79Z" transform="translate(0 71.49)"/><path class="cls-2" d="M90.65,365.15a91.34,91.34,0,0,1-18.58,10.76,59.23,59.23,0,0,0,2.8,5.85,84.94,84.94,0,0,1,5,11.86c1,2.74,3.07,6.42,6.46,6.5s6.47-5.26,7.28-8.09c1.78-6.2-1.9-10.75-1.74-16.72.07-2.69.56-5.35.6-8a17.38,17.38,0,0,0-.27-3.46C91.72,364.27,91.21,364.72,90.65,365.15Z" transform="translate(0 71.49)"/><path class="cls-2" d="M13.8,351.29c.1-1.37.24-2.75.38-4.12A61.62,61.62,0,0,0,2,363.8C.74,366.38-.25,369.2.06,372s2.21,5.66,5,6.23c3.38.69,6.45-1.92,8.85-4.39.84-.87,1.64-1.78,2.47-2.66C13.81,365.26,13.32,357.9,13.8,351.29Z" transform="translate(0 71.49)"/><path class="cls-2" d="M18.21,374.65a56.75,56.75,0,0,0-5.41,15.53c-.5,2.81-.71,5.79.33,8.44s3.63,4.88,6.48,4.7c3.43-.22,5.71-3.56,7.37-6.58,2.39-4.34,4.58-8.78,6.63-13.29a27.57,27.57,0,0,1-8.95-2.79A17.37,17.37,0,0,1,18.21,374.65Z" transform="translate(0 71.49)"/><path class="cls-2" d="M36.17,383.74A52.5,52.5,0,0,0,35,395.54c.07,2.85.44,5.81,2,8.21s4.52,4.07,7.27,3.32c3.33-.89,4.91-4.61,5.93-7.9q2.47-7.89,4.29-16c.09-.44.19-.89.29-1.34A60.46,60.46,0,0,1,36.17,383.74Z" transform="translate(0 71.49)"/><path class="cls-3" d="M19.63,351.05c4.6,3.43,10.2,5.81,15.92,5.54,5.42-.26,10.45-2.85,15-5.81,18-11.8,30.79-30.19,40.31-49.37,1.31-2.63,2.56-5.28,3.75-7.93,4.52-10.06,10.7-22.46,11-33.64.19-6.37-1.29-12.65-2.46-18.87a64,64,0,0,1-.86-16.75c-1.23-5.05-1.8-10.42-.76-15.28-1.37.94-2.66,1.88-3.79,2.72-42.68,31.8-77.36,80.15-83.42,133.82A51.16,51.16,0,0,0,19.63,351.05Z" transform="translate(0 71.49)"/><path class="cls-4" d="M107.26,302.61c2.18-10.71,4.61-21.63,5-32.5A62.34,62.34,0,0,0,109,246.83c-1.64-4.6-3.85-9.1-4.3-14,0-.41-.06-.82-.07-1.24-.54-1.53-1-3.07-1.51-4.63-.25-.83-.47-1.67-.68-2.52,0-.09,0-.17-.07-.26a64,64,0,0,0,.86,16.75c1.17,6.22,2.65,12.5,2.46,18.87-.35,11.18-6.53,23.58-11,33.64-1.19,2.65-2.44,5.3-3.75,7.93-9.52,19.18-22.3,37.57-40.31,49.37-4.53,3-9.56,5.55-15,5.81-5.72.27-11.32-2.11-15.92-5.54a51.16,51.16,0,0,1-5.28-5.57c-.06.56-.11,1.13-.17,1.69-.14,1.37-.28,2.75-.38,4.12-.48,6.61,0,14,2.58,19.93a22.94,22.94,0,0,0,1.83,3.43,17.37,17.37,0,0,0,6.45,6,27.57,27.57,0,0,0,9,2.79c.84.12,1.69.22,2.56.29a60.46,60.46,0,0,0,18.61-1.88l2.57-.66C83.68,363,100.89,333.79,107.26,302.61Z" transform="translate(0 71.49)"/><path class="cls-5" d="M104.58,231.63c0,.42,0,.83.07,1.24.45,4.86,2.66,9.36,4.3,14a62.34,62.34,0,0,1,3.28,23.28c-.36,10.87-2.79,21.79-5,32.5C100.89,333.79,83.68,363,57.35,381.2a104.63,104.63,0,0,0,14.72-5.29,91.34,91.34,0,0,0,18.58-10.76c.56-.43,1.07-.88,1.56-1.34,6.82-6.45,7.59-15.66,10.5-24.53A302.79,302.79,0,0,1,115,307.93l.44-1q5.88-12.77,12.94-25-2.51-8.85-4.38-17.85A96.72,96.72,0,0,1,104.58,231.63Z" transform="translate(0 71.49)"/><path class="cls-6" d="M102.32,224.22c0,.09.05.17.07.26a4.43,4.43,0,0,0,1.87.3,13.67,13.67,0,0,0,6.58-2.55A7.44,7.44,0,0,0,113,220a10.67,10.67,0,0,0,1-3.83,69,69,0,0,1,4.48-16.75c.06-1.55.17-3.09.26-4.63a18.63,18.63,0,0,0-13.79,6.73,18.26,18.26,0,0,0-3.38,7.45C100.52,213.8,101.09,219.17,102.32,224.22Z" transform="translate(0 71.49)"/><path class="cls-2" d="M118.41,201.48c0-.7,0-1.39.06-2.09A69,69,0,0,0,114,216.14a10.67,10.67,0,0,1-1,3.83,7.44,7.44,0,0,1-2.17,2.26,13.67,13.67,0,0,1-6.58,2.55,4.43,4.43,0,0,1-1.87-.3c.21.85.43,1.69.68,2.52.46,1.56,1,3.1,1.51,4.63A96.72,96.72,0,0,0,124,264.17q-1.42-6.69-2.48-13.44c-.51-3.26-1-6.52-1.37-9.79A260.16,260.16,0,0,1,118.41,201.48Z" transform="translate(0 71.49)"/><path class="cls-2" d="M181.49,373.8c.65,1.22,1.31,2.43,2,3.62a120.9,120.9,0,0,0,99.25,32.63,80.47,80.47,0,0,0,23.53-10.69,70.51,70.51,0,0,0,22.86-25.56C296.07,386.13,214.6,386.13,181.49,373.8Z" transform="translate(0 71.49)"/><path class="cls-3" d="M392.2,200.51a270.36,270.36,0,0,1-53.95,17.58A307.9,307.9,0,0,1,302,223.65c-28.59,2.68-57.82,1.23-86.31-2.07-33.81-3.92-66.17-8.58-97.25-20.1a260.16,260.16,0,0,0,1.69,39.46c.39,3.27.86,6.53,1.37,9.79,13.39,10.52,27.09,20.64,42,28.83,38.86,21.36,92.2,31.2,135.94,19.93l1.65-.44c20.27-5.51,42.31-26.58,57.49-40.38a291,291,0,0,0,33.53-36.13Q392.61,211.53,392.2,200.51Z" transform="translate(0 71.49)"/><path class="cls-4" d="M227.94,362.41a291,291,0,0,1-72.29-16.74q6.07,10.29,13.1,20.11c2.22,3.09,6.68,5.76,12.74,8,33.11,12.33,114.58,12.33,147.67,0,6.06-2.26,10.51-4.93,12.73-8,4.33-6,8.36-12.21,12.15-18.52-3.7,1.3-7.41,2.56-11.15,3.71A292,292,0,0,1,227.94,362.41Z" transform="translate(0 71.49)"/><path class="cls-4" d="M390.55,240.94c.73-6.11,1.22-12.25,1.52-18.4a291,291,0,0,1-33.53,36.13c-15.18,13.8-37.22,34.87-57.49,40.38l-1.65.44c-43.74,11.27-97.08,1.43-135.94-19.93-14.9-8.19-28.6-18.31-42-28.83q1.07,6.75,2.48,13.44,1.89,9,4.38,17.85a269.79,269.79,0,0,0,26.18,61.73q11.9,4.51,24.18,8a291.47,291.47,0,0,0,114.11,8.56,288.18,288.18,0,0,0,62.36-14.87,270,270,0,0,0,27.59-65c1.31-4.75,2.51-9.52,3.56-14.32Q389,253.61,390.55,240.94Z" transform="translate(0 71.49)"/><path class="cls-6" d="M292.8,360.27a291.47,291.47,0,0,1-114.11-8.56q-12.27-3.43-24.18-8c.37.64.76,1.28,1.14,1.92a291,291,0,0,0,72.29,16.74,292,292,0,0,0,115-11.44c3.74-1.15,7.45-2.41,11.15-3.71l1.12-1.86A288.18,288.18,0,0,1,292.8,360.27Z" transform="translate(0 71.49)"/><path class="cls-5" d="M118.41,201.48c31.08,11.52,63.44,16.18,97.25,20.1,28.49,3.3,57.72,4.75,86.31,2.07a307.9,307.9,0,0,0,36.28-5.56,270.36,270.36,0,0,0,53.95-17.58c-.06-1.86-.17-3.71-.28-5.57,0-.07,0-.14,0-.2-.1-1.7-.2-3.39-.34-5.08-43.91,4.29-228.59,4.29-272.5,0-.14,1.7-.24,3.4-.34,5.1-.09,1.54-.2,3.08-.26,4.63C118.44,200.09,118.44,200.78,118.41,201.48Z" transform="translate(0 71.49)"/><path class="cls-6" d="M60.78,56.15c1.52-6.63,3.87-17.9,4.33-19.49a211.29,211.29,0,0,1,8.14-23.21c.55-1.32,1.25-3.2,2.09-5.2A249.52,249.52,0,0,1,85.62-20.5c.44-1,.89-2.07,1.35-3.11C79.54-22,73.2-20,70.65-17.85c-4,3.34-6.64,7.73-9,12.1A142,142,0,0,0,44.3,51.93a90.43,90.43,0,0,0,11.17,6.73A3.73,3.73,0,0,0,60.78,56.15Z" transform="translate(0 71.49)"/><path class="cls-6" d="M449-5.75c-2.4-4.37-5-8.76-9-12.1-2.55-2.14-8.9-4.15-16.33-5.76.46,1,.92,2.06,1.36,3.11A249.26,249.26,0,0,1,439.1,23c1.45,2.12,2.87,3.63,3.77,6.17,2.22,6.24,4.09,12.54,6.37,18.74.7,1.89,1.43,3.77,2.23,5.64a40.34,40.34,0,0,0,14-9.61A142.84,142.84,0,0,0,449-5.75Z" transform="translate(0 71.49)"/><path class="cls-2" d="M466.78,62.61A142.44,142.44,0,0,0,465.51,44a40.34,40.34,0,0,1-14,9.61c-.8-1.87-1.53-3.75-2.23-5.64-2.28-6.2-4.15-12.5-6.37-18.74-.9-2.54-2.32-4.05-3.77-6.17a235.19,235.19,0,0,1,5.42,38.52,198.43,198.43,0,0,1-6.37,63.84A164.47,164.47,0,0,1,428.3,152c7.92-2.21,14.76-4.82,17.32-7.28,3.76-3.61,6.09-8.17,8.18-12.7A141.45,141.45,0,0,0,466.78,62.61Z" transform="translate(0 71.49)"/><path class="cls-2" d="M65.85,68.3a238.57,238.57,0,0,1,9.49-60c-.84,2-1.54,3.88-2.09,5.2a211.29,211.29,0,0,0-8.14,23.21c-.46,1.59-2.81,12.86-4.33,19.49a3.73,3.73,0,0,1-5.31,2.51A90.43,90.43,0,0,1,44.3,51.93c-.28,3.56-.43,7.12-.43,10.68a141.33,141.33,0,0,0,13,69.42c2.09,4.53,4.43,9.09,8.18,12.7,2.56,2.46,9.4,5.07,17.32,7.28a163.46,163.46,0,0,1-9.84-26.64A196.15,196.15,0,0,1,65.85,68.3Z" transform="translate(0 71.49)"/><path class="cls-3" d="M439.1,23A249.26,249.26,0,0,0,425-20.5c-.44-1.05-.9-2.08-1.36-3.11-6.13-13.64-13.77-26.19-26.08-35.6-21.76-16.64-260.06-16.1-284.52,0-13,8.52-20,21.84-26.09,35.6-.46,1-.91,2.07-1.35,3.11A249.52,249.52,0,0,0,75.34,8.25,238.57,238.57,0,0,0,65.85,68.3a113.4,113.4,0,0,0,12.4,12.3c6.37,5.42,14.17,13.93,22.7,8,6.69-4.62,5.38-13,6-20.1A156.89,156.89,0,0,1,110.16,46c1-4.37,2.29-8.71,3.74-13,3.41-17.61,10.52-34.33,23-47.5,3.22-3.41,61.49-4.63,118.41-4.34,56.92-.29,115.19.93,118.42,4.34,10.53,11.1,17.22,24.74,21.12,39.3.94,1.91,1.83,3.83,2.66,5.79a85.75,85.75,0,0,1,6,22.06l3.38,25.07a6.52,6.52,0,0,0,9.1,5.1A79.35,79.35,0,0,0,437.63,69a59.8,59.8,0,0,0,6.89-7.51A235.19,235.19,0,0,0,439.1,23Z" transform="translate(0 71.49)"/><path class="cls-4" d="M444.52,61.53A59.8,59.8,0,0,1,437.63,69,79.35,79.35,0,0,1,416,82.85a6.52,6.52,0,0,1-9.1-5.1l-3.38-25.07a85.75,85.75,0,0,0-6-22.06c-.83-2-1.72-3.88-2.66-5.79a137.06,137.06,0,0,1,4.33,29.78A116.23,116.23,0,0,1,401,71.09c.84,21.88-5.37,73.24-18.95,79.74-15.24,7.29-225.66.31-240.78-.93-12.56-1-16.75-7.69-20.49-19.68a130.27,130.27,0,0,1-5.71-32.33c-4-19.55-5.46-42.89-1.2-64.86-1.45,4.26-2.7,8.6-3.74,13A156.89,156.89,0,0,0,107,68.53c-.63,7.14.68,15.48-6,20.1-8.53,5.9-16.33-2.61-22.7-8a113.4,113.4,0,0,1-12.4-12.3,196.15,196.15,0,0,0,6.65,57.07A163.46,163.46,0,0,0,82.34,152C89,165.94,98,179.12,109.88,188c.84.62,4.05,1.18,9.19,1.68,43.91,4.29,228.59,4.29,272.5,0,5.14-.5,8.36-1.06,9.19-1.68,11.89-8.86,20.92-22,27.54-36a164.47,164.47,0,0,0,9.85-26.64A198.43,198.43,0,0,0,444.52,61.53Z" transform="translate(0 71.49)"/><path class="cls-5" d="M376.29,142.88c-3.61,2.13-63,3.17-121,3.12s-117.36-1-121-3.12c-6.24-3.69-14.51-21.63-19.25-45a130.27,130.27,0,0,0,5.71,32.33c3.74,12,7.93,18.65,20.49,19.68,15.12,1.24,225.54,8.22,240.78.93C395.66,144.33,401.87,93,401,71.09a116.23,116.23,0,0,0-1.84-16.48C400.84,96.37,386.06,137.11,376.29,142.88Z" transform="translate(0 71.49)"/><path class="cls-2" d="M399.19,54.61a137.06,137.06,0,0,0-4.33-29.78c-3.9-14.56-10.59-28.2-21.12-39.3-3.23-3.41-61.5-4.63-118.42-4.34-56.92-.29-115.19.93-118.41,4.34-12.49,13.17-19.6,29.89-23,47.5-4.26,22-2.77,45.31,1.2,64.86,4.74,23.36,13,41.3,19.25,45,3.61,2.13,63,3.17,121,3.12s117.36-1,121-3.12C386.06,137.11,400.84,96.37,399.19,54.61Z" transform="translate(0 71.49)"/><path class="cls-6" d="M134.36,50.81c-1.83,9.23-3.33,19-.11,27.88,5.18,14.19,20.69,15.38,33.7,14.84l1.53-.07a32.75,32.75,0,0,1-3.42-12.94c-.68-10.8.5-52.48,5.94-58.39,7.93-8.62,25.05-8.72,33.06,0C210.5,28,211.68,69.72,211,80.52a34.1,34.1,0,0,1-2.32,10.54c19.78-1.61,39.58-3.84,59.11-7q15.94-2.55,31.75-5.94c-.41-13.48.94-50.49,6-56,7.94-8.62,25.05-8.72,33.06,0,3.89,4.22,5.6,26.71,6,43.15A58.75,58.75,0,0,0,359,55.53c9.23-8.54,16.85-22.41,10.77-34.91-3.44-7.09-10.09-12.21-17.31-15.35S337.41.76,329.63-.52c-51.4-8.41-104.31-13.79-155.34-3.32-6.36,1.31-13.39,2.74-19.08,6-5,2.89-7.54,8.33-10.07,13.48C139.71,26.71,136.76,38.79,134.36,50.81Z" transform="translate(0 71.49)"/><path class="cls-7" d="M205.06,22.13c-8-8.72-25.13-8.62-33.06,0-5.44,5.91-6.62,47.59-5.94,58.39a32.75,32.75,0,0,0,3.42,12.94,21.06,21.06,0,0,0,6.93,7.94c6.51,4.32,17.53,4.46,24.25,0a22.06,22.06,0,0,0,8-10.34A34.1,34.1,0,0,0,211,80.52C211.68,69.72,210.5,28,205.06,22.13Z" transform="translate(0 71.49)"/><path class="cls-7" d="M305.58,22.13c-5.1,5.54-6.45,42.55-6,56,0,.9.06,1.69.1,2.36.49,7.86,3.57,16.38,10.35,20.88,6.51,4.32,17.53,4.46,24.25,0s9.85-13,10.34-20.88c.2-3.08.24-8.68.07-15.24-.41-16.44-2.12-38.93-6-43.15C330.63,13.41,313.52,13.51,305.58,22.13Z" transform="translate(0 71.49)"/><path class="cls-6" d="M242.18,408.44a122.09,122.09,0,0,1-58.66-31,70.59,70.59,0,0,0,20.82,21.94c14.89,10,32.94,14.36,51,14.12a98.14,98.14,0,0,0,27.45-3.43A121.64,121.64,0,0,1,242.18,408.44Z" transform="translate(0 71.49)"/><path class="cls-7" d="M279.39,130.44c-.85,1.52-9.12-4.82-23.06-4.88-14.17,0-22.63,6.42-23.5,4.88-1.05-1.87,9.63-14.31,23.28-14.31S280.44,128.58,279.39,130.44Z" transform="translate(0 71.49)"/><g id="Capa_1-2" data-name="Capa_1"><g id="_2266893966240" data-name=" 2266893966240"><polygon class="cls-8" points="258.52 380.74 290.53 380.74 282.7 385.62 268.58 385.61 268.44 385.61 263.86 416.98 256.58 425.66 258.52 380.74"/><polygon class="cls-8" points="254.56 380.7 254.39 416.88 248.37 425.6 244.42 385.49 224.01 385.48 230.59 380.7 254.56 380.7"/></g></g><path class="cls-6" d="M231,309.67l-2.77,2.14,23.21-.34q.71,16.14,1.4,32.28l.79-34Z" transform="translate(0 71.49)"/><polygon class="cls-6" points="259.33 381.16 258.25 415.23 261.05 383.2 284.44 383.2 287.89 381.16 259.33 381.16"/><path class="cls-2" d="M238.64,369.41l-.39,7.16-1.88-.1c.09-1.38.17-2.77.25-4.15h0q-.93,2-1.89,4l-1.15-.08c-.46-1.39-.91-2.78-1.36-4.17h0l-.3,4.15L230,376l.57-7.15,2.43.18c.43,1.43.88,2.86,1.33,4.28h0c.63-1.36,1.25-2.72,1.87-4.08Z" transform="translate(0 71.49)"/><path class="cls-2" d="M241.42,376.73l-2.15-.1.36-7.17,2.11.1Q241.59,373.15,241.42,376.73Z" transform="translate(0 71.49)"/><path class="cls-2" d="M244.6,376.85l-2.16-.08.3-7.16,2.1.08c0,1-.07,2-.1,3h0l2.32-3,2.22.05c-.81,1.05-1.63,2.09-2.46,3.13.8,1.35,1.6,2.7,2.42,4-.84,0-1.67,0-2.51-.06-.51-.89-1-1.78-1.51-2.68l-.6.74Z" transform="translate(0 71.49)"/><path class="cls-2" d="M252,374.62l0,2.41-2.15,0c0-2.39.09-4.78.13-7.17l3.19.05a3.24,3.24,0,0,1,2.16.65,2.21,2.21,0,0,1,.74,1.8,2.39,2.39,0,0,1-.31,1.2,1.82,1.82,0,0,1-.86.81c.45.91.92,1.82,1.38,2.72h-2.41c-.38-.81-.76-1.61-1.13-2.42Zm0-3.21c0,.61,0,1.21,0,1.82h.88a1,1,0,0,0,.71-.24,1,1,0,0,0,0-1.32.94.94,0,0,0-.69-.26Z" transform="translate(0 71.49)"/><path class="cls-2" d="M257.67,370.75a3.56,3.56,0,0,1,2.64-1,3.59,3.59,0,0,1,2.66.95,3.78,3.78,0,0,1,1,2.7,3.64,3.64,0,0,1-.93,2.73,3.58,3.58,0,0,1-2.68,1,3.39,3.39,0,0,1-3.7-3.68A3.7,3.7,0,0,1,257.67,370.75Zm3.74,1.2a1.26,1.26,0,0,0-1.08-.54,1.28,1.28,0,0,0-1.07.56,2.55,2.55,0,0,0-.39,1.49,2.42,2.42,0,0,0,.42,1.47,1.25,1.25,0,0,0,1.09.54,1.29,1.29,0,0,0,1.08-.57,2.89,2.89,0,0,0,0-2.95Z" transform="translate(0 71.49)"/><path class="cls-2" d="M268.39,376.83l-2.16.07c-.05-1.83-.11-3.66-.16-5.49l-1.9,0c0-.56,0-1.12-.05-1.68,2,0,3.93-.11,5.89-.2l.07,1.68-1.89.07C268.25,373.17,268.32,375,268.39,376.83Z" transform="translate(0 71.49)"/><path class="cls-2" d="M276.13,374.77c0,.56.06,1.12.1,1.68l-5.17.27-.33-7.17c1.69-.07,3.38-.16,5.06-.26,0,.55.07,1.11.11,1.67l-3,.16.06,1.16,2.79-.15.09,1.5-2.8.16c0,.38,0,.77.05,1.15Z" transform="translate(0 71.49)"/><path class="cls-2" d="M282.13,374.36c0,.55.08,1.11.13,1.67-1.68.13-3.35.25-5,.35l-.45-7.15,2.11-.14c.12,1.82.25,3.65.38,5.48Z" transform="translate(0 71.49)"/></svg>