<svg id="Capa_1" data-name="Capa 1" xmlns="http://www.w3.org/2000/svg" viewBox="0 0 175.75 58.52"><defs><style>.cls-1{fill:#0059a2;fill-rule:evenodd;}</style></defs><path class="cls-1" d="M50.09,153.83C65,146.52,73.24,138.21,72,131.33c-2.56-14.47-46.41-16.8-91.65-8.76-20.71,3.67-40.52,9.19-53.92,14.67a10.29,10.29,0,0,1,1.21,0c5.79.16,5.44,3.77,5.44,3.77v2.2H-71.5v-1.5c0-1.05-1.29-1.13-1.29-1.13a1.19,1.19,0,0,0-1.22.67,1.67,1.67,0,0,0,.39,1.91,15.9,15.9,0,0,0,2.88,1.65,16.56,16.56,0,0,1,2,1.07,4.63,4.63,0,0,1,2.14,4.1v1.77c-.29,4.38-6.33,4.26-6.33,4.26-6.32,0-6.18-4.15-6.18-4.15v-2.17h4.92v1.49a1.29,1.29,0,0,0,1.23,1.33,1.36,1.36,0,0,0,1.45-1.25c.19-1.26-1.21-2.05-1.21-2.05-1.37-.71-3.67-1.95-3.67-1.95a6,6,0,0,1-1.59-1.41,4.6,4.6,0,0,1-.76-2.62v-1.37c0-1.91.51-2.46.51-2.46a.75.75,0,0,1,.07-.12c-16.53,7.64-26.65,16.49-25.36,23.77,2.6,14.76,43.95,16.7,92.58,9.21a225.3,225.3,0,0,0,56.63-16.37h-.33s-6,.48-6.1-4.33v-9.29s-.74-5.12,5.94-5.12c0,0,4.34-.14,5.49,2.43,0,0,.57.69.42,3.55H46.51v-1.46a1.17,1.17,0,0,0-1.21-1.18s-1.26.05-1.26,1v9.61a1.26,1.26,0,1,0,2.52-.09v-2.78H45.3v-2.59h6v5.46a3.77,3.77,0,0,1-.49,1.82,6,6,0,0,1-.67.88Zm-17,1.55H27.68l-4.86-10.73h-.21l.28,10.73H18.31V137.83h5.62l4.7,10.65h.2l-.33-10.65h4.64v17.55ZM4.45,151a1.33,1.33,0,0,0,1.41,1.42c1.35,0,1.28-1.45,1.28-1.45V137.76H12v13.39c0,4.82-6.11,4.75-6.11,4.75-7,0-6.51-5-6.51-5V137.76h5V151ZM-11,143.19v-1.5c0-1.06-1.29-1.13-1.29-1.13a1.19,1.19,0,0,0-1.22.67,1.69,1.69,0,0,0,.39,1.91,16.25,16.25,0,0,0,2.88,1.65,16.56,16.56,0,0,1,2,1.07A4.63,4.63,0,0,1-6,150v1.77c-.28,4.38-6.32,4.26-6.32,4.26-6.33,0-6.19-4.15-6.19-4.15v-2.17h4.92v1.49a1.29,1.29,0,0,0,1.23,1.33,1.37,1.37,0,0,0,1.46-1.25c.18-1.26-1.21-2.05-1.21-2.05-1.38-.71-3.68-1.95-3.68-1.95a6,6,0,0,1-1.59-1.41,4.6,4.6,0,0,1-.76-2.62v-1.38c0-1.9.52-2.45.52-2.45,1.3-2.46,5.86-2.16,5.86-2.16,5.8.16,5.44,3.77,5.44,3.77v2.2Zm-24.24-5.36,1.48,9.6h.36l1.55-9.6h7.64l.49,17.55h-4.59l-.11-13.22h-.32l-2.39,13.22h-4.81l-2.42-13.22h-.36l-.05,13.22h-4.57l.38-17.55Zm-17.93,17.53-1.8-13.61h-.4l-1.8,13.61h-4.92l3-17.55h7.76l3,17.55Z" transform="translate(103.6 -118)"/></svg>